<?xml version="1.0" encoding="UTF-8"?>
<svg id="Layer_2" xmlns="http://www.w3.org/2000/svg" viewBox="-121.67 0 641.35 641.35">
  <defs>
    <style>
      .cls-1 {
        fill: #fff;
        stroke: #fff;
        stroke-miterlimit: 10;
      }
    </style>
  </defs>
  <g id="Layer_1-2">
    <path class="cls-1"
      d="M25.62,547.13c6.65-8.24,12.23-17.28,19.01-25.45,29.51-35.56,64.97-67.56,98.86-98.94,62.3-57.69,142.11-113.59,111.17-212.04-1.13-3.6-7.38-21.16-8.79-23.18-1.32-1.89-18.42-6.48-23.11-8.86-47.86-24.26-69.21-78.87-44.83-128.09.77-1.55,8.07-12.42,7.53-12.94-41.77,17.21-74.55,53.21-82.88,98.44-6.66.42-12.62,4.6-18.81,6.16-1.38.35-6.76,2.09-7.04-.17C86.96,76.62,143.58,17.47,208.26,3.97c57.66-12.03,133.09,6.39,154.51,67.64,1.67,4.78,2,13.38,4.09,16.89,2.4,4.03,17.35,12.74,22.38,18.58,19.31,22.44,4.7,48.1-9.55,68.32-2.1,2.98-9.53,13.13-12.93,12.75-2.17-.24-17.4-33.74-23.43-36.64,0,1.19-.72,2.18-1.47,3.03-16.98,19.24-44.76,32.97-70.47,33.94,10.48,23.61,15.38,48.51,14.02,74.46-1.32,25.28-12.21,58.51-26.6,79.3-36.76,53.1-95.41,94.78-142.29,139.43-29.91,28.49-78.06,75.5-82.8,118-1.09,9.77,2.95,32.51-4.17,38.78-16.76,14.77-23-22.98-24.63-33.16-5.69-35.42-1.85-73.02-2.18-108.62-.54-57.96-4.02-116.85-1.04-174.79,3.38-65.83,22.89-116.43,80.15-152.62,37.92-23.97,100.99-24.92,131.02,12.3,28.17,34.92,32.48,72.37,15.33,114.07-13.58,33.03-61.34,70.22-87.69,95.13-28.12,26.58-61.97,55.15-87.93,82.91-5.67,6.06-26.95,32.01-26.95,38.99v34.47ZM255.2,24.94c-63.28,4.22-84.73,82.17-38.23,121.55,47.93,40.59,132.05,7.59,124.24-59.3-4.19-35.94-52.35-64.49-86.01-62.24ZM362.31,117.55c-4.52,12.83-7.84,20.21,9.04,22.46,9.57-9.7-2.51-15.98-9.04-22.46ZM25.63,467.21c16.39-16.73,32.95-33.31,49.93-49.47,33.57-31.94,69.4-61.92,102.44-94.37,31.02-30.46,50.48-70.85,25.62-112.59-38.66-64.9-125.68-30.99-156.56,23.6-14.87,26.29-23.76,60.76-20.94,90.95,34.8-36.8,74.03-69.37,106.47-108.32,18.16-10.6,29.29,5.82,15.94,21.94-6.13,7.41-16.75,16.95-23.99,23.97-25.16,24.39-51.45,47.87-76.46,72.39-4.73,4.64-22.5,24.17-23.4,29.55-1.46,8.72.29,22.45.96,31.42l16.52-14.94c32.83-36.45,71.77-67.3,105.94-102.39,5.7-5.85,14.45-18.53,19.9-22.53,8.16-5.99,21.96-3.01,21.41,8.35-.62,12.95-22.04,28.43-30.92,37.09-20.24,19.72-40.44,39.5-60.91,58.97-13.6,12.94-70.08,60.59-72.71,75.15-1.62,8.94.12,22.08.78,31.24Z" />
    <path class="cls-1"
      d="M75.04,630.84c3.64-.22,6.77-2.71,7.75-6.23,5.31-18.99,10.37-48.23,38.69-53.7,16.85-3.26,67.08-3.96,83.65-3.03,19.97.93,41.66,7.36,52.92,25.27,5.78,8.53,9.11,19.7,13.37,27.93,8.57,18.17,18.68,11.29,19.81-5.07,1.68-31.17-20.84-59.95-51.03-67.39-3.84-1.93-30.63-4.59-28.79-7.55,2.67-1.93,10.35-2.32,15.03-2.78,10.75-.69,22.13-.39,32.98.04,23.18,1.03,50.59,3.77,63.27,25.47,5.29,6.74,9.6,25.35,16.84,33.92,4.19,4.96,12.19,3.62,14.55-2.42,4.48-11.46-1.44-31.09-5.63-40.47-14.38-34.9-56.07-39.48-89.64-41.17-21.5-1.18-22.89-13.28-22.83-31.91.21-18.98-2.46-40.22,16.93-49.42,19.81-9.25,40.6-18.86,57.63-33.08,48-39.43,78.27-102.61,76.62-165.32-.17-6.08-1.44-14.69-5.05-19.92-3.42-4.96-10.87-4.77-14.16.28-4.46,6.83-5.07,19-5.48,26.36-1.61,84.81-60.03,156.8-142.72,172.14-.49.09-.97.22-1.43.4-8.77,3.31-16.34,6.94-16.66,15.73.13,5.62,4.74,11.63,7.33,19.94,1.61,5.12,2.28,10.11,2.58,15.7.34,9.71.33,20.65,0,30.21.03,8.59-3.3,19.68-11,22.9-6.71,3.47-15.2,1.83-18.82-5.35-4.61-9.12-3.04-24.14-4.17-34.91-.84-20.56-13.36-32.43-22.07-8.85-.1.28-.19.57-.27.85-2.94,11.02-1.9,25.66-1.78,37.75.39,9.75.51,22.71-4.13,29.62-7.29,11.67-23.62,10.91-35.89,13.68-35.61,6.85-49.1,38.63-51.81,71.35-.44,5.36,4.08,9.82,9.44,9.28h0s3.97-.24,3.97-.24Z" />
    <circle class="cls-1" cx="266.83" cy="94.52" r="37.97" />
  </g>
</svg>